<?xml version="1.0" encoding="UTF-8"?>
<svg id="Layer_1" xmlns="http://www.w3.org/2000/svg" version="1.1" viewBox="0 0 500 500">
  <!-- Generator: Adobe Illustrator 30.2.1, SVG Export Plug-In . SVG Version: 2.1.1 Build 1)  -->
  <defs>
    <style>
      .st0 {
        fill: #989898;
      }

      .st0, .st1, .st2 {
        display: none;
      }

      .st1 {
        fill: #676767;
      }

      .st3 {
        fill: #3d3e3e;
      }

      .st4 {
        fill: #ccc;
      }
    </style>
  </defs>
  <g id="Layer_2">
    <g class="st2">
      <path class="st4" d="M170.2,393.1c3.5,0,5.9,2.4,5.9,5.9v4.2c0,1.8-.7,3.3-2.6,4.5,2.1,1,2.9,2.7,2.9,4.5v4.9c0,3.5-2.4,5.9-5.9,5.9h-15.4v-29.7h15.1v-.2ZM168.7,405c1.1,0,1.4-.2,1.4-1.4v-3.5c0-.9-.5-1.4-1.4-1.4h-7.6v6.4h7.6ZM169,417.3c.9,0,1.4-.5,1.4-1.4v-4.3c0-1.2-.7-1.3-1.9-1.3h-7.4v7h7.9Z"/>
      <path class="st4" d="M201.2,393c3.5,0,5.9,2.4,5.9,5.9v18.3c0,3.5-2.4,5.9-5.9,5.9h-9.9c-3.5,0-5.9-2.4-5.9-5.9v-18.3c0-3.5,2.4-5.9,5.9-5.9h9.9ZM201.1,400c0-.9-.5-1.4-1.4-1.4h-7c-.9,0-1.4.5-1.4,1.4v16c0,.9.5,1.4,1.4,1.4h7c.9,0,1.4-.5,1.4-1.4v-16Z"/>
      <path class="st4" d="M239.9,393.1v29.7h-6.4l-10.9-20.3v20.3h-5.6v-29.7h6.4l10.9,20.3v-20.3h5.6Z"/>
      <path class="st4" d="M250.5,393.1h19.5v5.6h-13.5v6.4h10.9v5.6h-10.9v12.1h-5.9v-29.7h-.1Z"/>
      <path class="st4" d="M278.6,393.1h5.9v29.7h-5.9v-29.7Z"/>
      <path class="st4" d="M310.7,422.9l-4.8-11h-4.8v11h-5.9v-29.7h15.1c3.5,0,5.9,2.4,5.9,5.9v7c0,2.8-1.6,4.9-4,5.6l5,11.3h-6.5ZM310.3,400.2c0-.9-.5-1.4-1.4-1.4h-7.7v7.6h7.7c.9,0,1.4-.5,1.4-1.4v-4.8Z"/>
      <path class="st4" d="M345.6,393.1v5.6h-13.5v6.1h10.9v5.6h-10.9v6.8h13.5v5.6h-19.4v-29.7h19.4Z"/>
    </g>
    <polygon class="st1" points="402.8 352.1 352.4 282 250 141.4 250 141.4 147.6 282 97.2 352.1 97 352.3 97.5 352.3 142.5 352.3 250 204.8 357.5 352.3 402.5 352.3 403 352.3 402.8 352.1"/>
    <polygon class="st0" points="250 215.7 150.6 352.3 196.8 352.3 250 279.2 250 279.2 303.2 352.3 349.4 352.3 250 215.7"/>
    <polygon class="st2" points="405.8 312.4 248 336 88.9 311.9 248.1 90.6 405.8 312.4"/>
  </g>
  <g id="Layer_11" data-name="Layer_1">
    <g class="st2">
      <path class="st4" d="M181.4,399.1c2.7,0,4.5,1.8,4.5,4.5v3.2c0,1.3-.6,2.6-2,3.5,1.6.8,2.3,2.1,2.3,3.5v3.8c0,2.7-1.8,4.5-4.5,4.5h-11.9v-23h11.6ZM180.2,408.3c.9,0,1.1-.2,1.1-1.1v-2.8c0-.7-.4-1.1-1.1-1.1h-5.9v4.9h5.9ZM180.5,417.8c.7,0,1.1-.4,1.1-1.1v-3.3c0-.9-.6-1-1.5-1h-5.8v5.5h6.2Z"/>
      <path class="st4" d="M205.5,398.9c2.7,0,4.5,1.8,4.5,4.5v14.2c0,2.7-1.8,4.5-4.5,4.5h-7.7c-2.7,0-4.5-1.8-4.5-4.5v-14.2c0-2.7,1.8-4.5,4.5-4.5h7.7ZM205.5,404.4c0-.7-.4-1.1-1.1-1.1h-5.4c-.7,0-1.1.4-1.1,1.1v12.4c0,.7.4,1.1,1.1,1.1h5.4c.7,0,1.1-.4,1.1-1.1v-12.4Z"/>
      <path class="st4" d="M235.7,399.1v23h-5l-8.5-15.7v15.7h-4.4v-23h5l8.5,15.7v-15.7h4.4Z"/>
      <path class="st4" d="M244,399.1h15.1v4.3h-10.5v4.9h8.5v4.3h-8.5v9.4h-4.6v-22.9Z"/>
      <path class="st4" d="M265.8,399.1h4.6v23h-4.6v-23Z"/>
      <path class="st4" d="M290.9,422.1l-3.7-8.5h-3.7v8.5h-4.6v-23h11.8c2.7,0,4.5,1.8,4.5,4.5v5.4c0,2.1-1.2,3.8-3.2,4.3l3.8,8.7h-4.9ZM290.5,404.5c0-.7-.4-1.1-1.1-1.1h-6v5.9h6c.7,0,1.1-.4,1.1-1.1v-3.7Z"/>
      <path class="st4" d="M318,399.1v4.3h-10.5v4.7h8.5v4.3h-8.5v5.2h10.5v4.3h-15.1v-23h15.1v.2Z"/>
    </g>
  </g>
  <g>
    <path class="st3" d="M43.2,202.3l62.2-62.2c2.2-2.2,5.2-3.4,8.3-3.4h71.3c6.5,0,11.8,5.3,11.8,11.8v15.7c0,6.5-5.3,11.8-11.8,11.8h-94.2c-6.5,0-11.8,5.3-11.8,11.8v30.5c0,10.5,12.7,15.7,20.1,8.3l15.7-15.7c2.2-2.2,5.2-3.4,8.3-3.4h61.9c6.5,0,11.8,5.3,11.8,11.8v61.9c0,3.1-1.2,6.1-3.4,8.3l-71.6,71.6c-2.2,2.2-5.2,3.4-8.3,3.4h-25.7c-10.5,0-15.7-12.7-8.3-20.1l74.6-74.6c2.2-2.2,3.4-5.2,3.4-8.3v-2.9c0-6.5-5.3-11.8-11.8-11.8h-61.9c-3.1,0-6.1,1.2-8.3,3.4l-15.7,15.7c-7.4,7.4-20.1,2.2-20.1-8.3v-46.8c.1-3.3,1.3-6.3,3.5-8.5Z"/>
    <g>
      <path class="st3" d="M242.6,166.7c0,1.7.3,3.2.9,4.4.6,1.2,1.4,2.2,2.4,3s2.3,1.3,3.6,1.7c1.4.4,2.8.5,4.4.5s3.2-.2,4.4-.6c1.2-.4,2.2-.9,3-1.5s1.3-1.4,1.6-2.2c.3-.8.5-1.6.5-2.5,0-1.7-.4-3-1.2-3.8-.8-.8-1.6-1.4-2.5-1.7-1.6-.6-3.4-1.1-5.6-1.7-2.1-.5-4.7-1.2-7.8-2-1.9-.5-3.5-1.2-4.8-2s-2.3-1.7-3-2.7c-.8-1-1.3-2.1-1.6-3.2-.3-1.1-.5-2.3-.5-3.5,0-2.3.5-4.2,1.4-5.9s2.2-3,3.7-4.1,3.3-1.9,5.3-2.4,4-.8,6-.8,4.6.3,6.6.9c2.1.6,3.9,1.5,5.5,2.7s2.8,2.7,3.7,4.5c.9,1.8,1.4,3.8,1.4,6.2h-7.9c-.2-2.9-1.2-4.9-3-6.1-1.8-1.2-4-1.8-6.7-1.8s-1.9.1-2.8.3c-1,.2-1.8.5-2.6.9s-1.5,1-2,1.8-.8,1.7-.8,2.8c0,1.6.5,2.8,1.5,3.7s2.3,1.6,3.9,2c.2,0,.8.2,2,.5s2.4.7,3.9,1c1.4.4,2.8.7,4.2,1.1,1.4.4,2.3.6,2.9.8,1.5.5,2.7,1.1,3.8,1.9,1.1.8,2,1.7,2.7,2.7s1.3,2.1,1.6,3.3c.4,1.2.5,2.3.5,3.5,0,2.5-.5,4.7-1.5,6.4-1,1.8-2.4,3.2-4.1,4.4-1.7,1.1-3.6,2-5.7,2.5s-4.3.8-6.5.8-5-.3-7.2-.9c-2.3-.6-4.2-1.6-5.9-2.9-1.7-1.3-3-3-4-5s-1.5-4.4-1.6-7.2h7.9v.2Z"/>
      <path class="st3" d="M292.1,182.5c-2.6,0-4.9-.4-6.9-1.3-2-.9-3.7-2-5.2-3.5-1.4-1.5-2.5-3.3-3.2-5.4-.7-2.1-1.1-4.4-1.1-6.9s.4-4.8,1.1-6.8c.7-2.1,1.8-3.9,3.2-5.4,1.4-1.5,3.1-2.7,5.2-3.5,2-.9,4.3-1.3,6.9-1.3s4.9.4,6.9,1.3c2,.9,3.7,2,5.2,3.5,1.4,1.5,2.5,3.3,3.2,5.4.7,2.1,1.1,4.4,1.1,6.8s-.4,4.8-1.1,6.9c-.7,2.1-1.8,3.9-3.2,5.4-1.4,1.5-3.1,2.7-5.2,3.5-2,.9-4.3,1.3-6.9,1.3ZM292.1,176.8c1.6,0,3-.3,4.1-1,1.2-.7,2.1-1.5,2.9-2.6s1.3-2.3,1.7-3.7c.4-1.4.5-2.8.5-4.2s-.2-2.8-.5-4.1c-.4-1.4-.9-2.6-1.7-3.7-.8-1.1-1.7-1.9-2.9-2.6-1.2-.7-2.6-1-4.1-1s-3,.3-4.1,1c-1.2.7-2.1,1.5-2.9,2.6s-1.3,2.3-1.7,3.7c-.4,1.4-.5,2.8-.5,4.1s.2,2.8.5,4.2c.4,1.4.9,2.6,1.7,3.7.8,1.1,1.7,2,2.9,2.6,1.1.7,2.5,1,4.1,1Z"/>
      <path class="st3" d="M314.4,149.1h6.8v4.5h.2c.5-.8,1.1-1.5,1.8-2.2.6-.7,1.3-1.2,2.1-1.7.8-.5,1.7-.8,2.7-1.1s2.2-.4,3.5-.4c2,0,3.8.4,5.5,1.3,1.7.9,2.9,2.2,3.6,4.1,1.2-1.7,2.6-3,4.2-4s3.6-1.4,6-1.4c3.4,0,6.1.8,8,2.5s2.9,4.5,2.9,8.4v22.4h-7.2v-19c0-1.3,0-2.5-.1-3.5-.1-1.1-.3-2-.7-2.8-.4-.8-1-1.4-1.8-1.8-.8-.4-1.9-.6-3.3-.6-2.4,0-4.2.8-5.3,2.3-1.1,1.5-1.6,3.6-1.6,6.4v19h-7.2v-20.9c0-2.3-.4-4-1.2-5.1-.8-1.2-2.3-1.7-4.5-1.7s-1.8.2-2.7.6c-.9.4-1.6.9-2.3,1.6-.6.7-1.2,1.6-1.6,2.6s-.6,2.2-.6,3.6v19.3h-7.2v-32.4h0Z"/>
      <path class="st3" d="M369.3,136.8h7.2v16.6h.1c.5-.8,1.1-1.5,1.8-2.1.7-.6,1.5-1.2,2.4-1.6.9-.4,1.8-.8,2.7-1,.9-.2,1.9-.3,2.8-.3,2.6,0,4.8.5,6.7,1.4,1.9.9,3.5,2.1,4.7,3.7,1.3,1.6,2.2,3.4,2.8,5.5.6,2.1.9,4.3.9,6.7s-.3,4.3-.8,6.3c-.6,2.1-1.4,3.9-2.6,5.4-1.2,1.6-2.6,2.8-4.4,3.8-1.8.9-3.8,1.4-6.2,1.4s-2.2-.1-3.3-.2c-1.1-.1-2.2-.4-3.2-.8-1-.4-1.9-1-2.7-1.6-.8-.7-1.5-1.5-2-2.6h-.1v4.5h-6.8v-45.1ZM394.3,165.4c0-1.5-.2-2.9-.6-4.3-.4-1.4-.9-2.6-1.7-3.7-.8-1.1-1.7-1.9-2.8-2.6-1.1-.6-2.4-1-3.9-1-3,0-5.3,1-6.8,3.1s-2.3,4.9-2.3,8.4.2,3.2.6,4.6c.4,1.4,1,2.6,1.8,3.6s1.7,1.8,2.9,2.4c1.1.6,2.4.9,3.9.9s3-.3,4.1-1,2.1-1.5,2.8-2.6c.7-1.1,1.3-2.3,1.6-3.6.2-1.4.4-2.8.4-4.2Z"/>
      <path class="st3" d="M407.5,149.1h6.7v6.3h.1c.2-.9.6-1.7,1.2-2.6.6-.8,1.3-1.6,2.2-2.3.9-.7,1.8-1.2,2.9-1.7,1-.4,2.1-.6,3.2-.6s1.4,0,1.7.1c.3,0,.6.1,1,.1v6.9c-.5-.1-1-.2-1.5-.2-.5-.1-1-.1-1.5-.1-1.2,0-2.4.2-3.4.7-1.1.5-2,1.2-2.8,2.1-.8.9-1.4,2.1-1.9,3.5s-.7,3-.7,4.8v15.5h-7.2v-32.5h0Z"/>
      <path class="st3" d="M456.8,174.4c0,.9.1,1.5.3,1.9.2.4.7.6,1.4.6h.8c.3,0,.6,0,1-.1v5c-.3.1-.6.2-1,.3s-.8.2-1.2.3c-.4.1-.8.1-1.3.2-.4,0-.8.1-1.1.1-1.5,0-2.7-.3-3.6-.9-1-.6-1.6-1.6-1.9-3.1-1.4,1.4-3.2,2.4-5.2,3-2.1.6-4.1.9-6,.9s-2.9-.2-4.2-.6c-1.3-.4-2.5-1-3.5-1.8s-1.8-1.8-2.4-3-.9-2.6-.9-4.2.4-3.6,1.1-4.9c.7-1.3,1.7-2.2,2.9-3,1.2-.7,2.5-1.2,4-1.5s3-.6,4.5-.7c1.3-.3,2.5-.4,3.7-.5s2.2-.3,3.1-.5c.9-.3,1.6-.6,2.1-1.2.5-.5.8-1.3.8-2.4s-.2-1.7-.7-2.3c-.4-.6-1-1-1.6-1.4-.6-.3-1.4-.5-2.2-.6-.8-.1-1.5-.2-2.3-.2-2,0-3.7.4-5,1.3-1.3.8-2,2.1-2.2,3.9h-7.2c.1-2.1.6-3.8,1.5-5.2s2-2.5,3.4-3.3,2.9-1.4,4.6-1.8c1.7-.3,3.5-.5,5.3-.5s3.2.2,4.7.5,2.9.9,4.2,1.6c1.2.8,2.2,1.7,3,2.9s1.1,2.6,1.1,4.4v16.8h0ZM449.6,165.3c-1.1.7-2.4,1.1-4,1.3-1.6.1-3.2.4-4.8.7-.8.1-1.5.3-2.2.5s-1.3.5-1.9.9c-.5.4-1,.9-1.3,1.6-.3.6-.5,1.4-.5,2.4s.2,1.5.7,2,1,1,1.7,1.3c.6.3,1.4.5,2.1.7.8.1,1.5.2,2.1.2s1.7-.1,2.6-.3,1.8-.6,2.6-1.1c.8-.5,1.5-1.1,2-1.9.5-.8.8-1.7.8-2.9v-5.4h0Z"/>
    </g>
    <g>
      <path class="st3" d="M237.5,202h7.9v38.1h22.8v6.8h-30.7v-44.9h0Z"/>
      <path class="st3" d="M299.7,239.6c0,.9.1,1.5.3,1.9.2.4.7.6,1.4.6h.8c.3,0,.6,0,1-.1v5c-.3.1-.6.2-1,.3s-.8.2-1.2.3c-.4.1-.8.1-1.3.2-.4,0-.8.1-1.1.1-1.5,0-2.7-.3-3.6-.9-1-.6-1.6-1.6-1.9-3.1-1.4,1.4-3.2,2.4-5.2,3-2.1.6-4.1.9-6,.9s-2.9-.2-4.2-.6c-1.3-.4-2.5-1-3.5-1.8s-1.8-1.8-2.4-3-.9-2.6-.9-4.2.4-3.6,1.1-4.9c.7-1.3,1.7-2.2,2.9-3,1.2-.7,2.5-1.2,4-1.5s3-.6,4.5-.7c1.3-.3,2.5-.4,3.7-.5s2.2-.3,3.1-.5c.9-.3,1.6-.6,2.1-1.2.5-.5.8-1.3.8-2.4s-.2-1.7-.7-2.3c-.4-.6-1-1-1.6-1.4-.6-.3-1.4-.5-2.2-.6-.8-.1-1.5-.2-2.3-.2-2,0-3.7.4-5,1.3-1.3.8-2,2.1-2.2,3.9h-7.1c.1-2.1.6-3.8,1.5-5.2s2-2.5,3.4-3.3,2.9-1.4,4.6-1.8c1.7-.3,3.5-.5,5.3-.5s3.2.2,4.7.5,2.9.9,4.2,1.6c1.2.8,2.2,1.7,3,2.9s1.1,2.6,1.1,4.4v16.8h-.1ZM292.6,230.6c-1.1.7-2.4,1.1-4,1.3-1.6.1-3.2.4-4.8.7-.8.1-1.5.3-2.2.5s-1.3.5-1.9.9c-.5.4-1,.9-1.3,1.6-.3.6-.5,1.4-.5,2.4s.2,1.5.7,2,1,1,1.7,1.3c.6.3,1.4.5,2.1.7.8.1,1.5.2,2.1.2s1.7-.1,2.6-.3,1.8-.6,2.6-1.1c.8-.5,1.5-1.1,2-1.9.5-.8.8-1.7.8-2.9v-5.4h0Z"/>
      <path class="st3" d="M307.7,202h7.2v16.6h.1c.5-.8,1.1-1.5,1.8-2.1.7-.6,1.5-1.2,2.4-1.6.9-.4,1.8-.8,2.7-1,.9-.2,1.9-.3,2.8-.3,2.6,0,4.8.5,6.7,1.4,1.9.9,3.5,2.1,4.7,3.7,1.3,1.6,2.2,3.4,2.8,5.5.6,2.1.9,4.3.9,6.7s-.3,4.3-.8,6.3c-.6,2.1-1.4,3.9-2.6,5.4-1.2,1.6-2.6,2.8-4.4,3.8-1.8.9-3.8,1.4-6.2,1.4s-2.2-.1-3.3-.2c-1.1-.1-2.2-.4-3.2-.8-1-.4-1.9-1-2.7-1.6-.8-.7-1.5-1.5-2-2.6h-.1v4.5h-6.8v-45.1ZM332.7,230.6c0-1.5-.2-2.9-.6-4.3-.4-1.4-.9-2.6-1.7-3.7-.8-1.1-1.7-1.9-2.8-2.6-1.1-.6-2.4-1-3.9-1-3,0-5.3,1-6.8,3.1s-2.3,4.9-2.3,8.4.2,3.2.6,4.6c.4,1.4,1,2.6,1.8,3.6s1.7,1.8,2.9,2.4c1.1.6,2.4.9,3.9.9s3-.3,4.1-1,2.1-1.5,2.8-2.6c.7-1.1,1.3-2.3,1.6-3.6.2-1.4.4-2.7.4-4.2Z"/>
      <path class="st3" d="M351.2,236.4c.2,2.1,1,3.6,2.4,4.4,1.4.8,3,1.3,5,1.3s1.4-.1,2.3-.2c.9-.1,1.7-.3,2.4-.6.8-.3,1.4-.7,1.9-1.3s.7-1.3.7-2.2-.4-1.7-1-2.3-1.4-1.1-2.4-1.4c-1-.4-2.1-.7-3.4-.9-1.3-.3-2.5-.5-3.8-.8s-2.6-.6-3.9-1.1c-1.2-.4-2.3-1-3.3-1.7s-1.8-1.6-2.4-2.7c-.6-1.1-.9-2.5-.9-4.1s.4-3.2,1.3-4.4,1.9-2.2,3.3-2.9c1.3-.7,2.8-1.2,4.4-1.5s3.2-.4,4.6-.4,3.3.2,4.8.5c1.5.4,2.9.9,4.1,1.7s2.3,1.8,3.1,3.1c.8,1.3,1.3,2.8,1.5,4.6h-7.5c-.3-1.7-1.1-2.9-2.4-3.5-1.2-.6-2.6-.9-4.2-.9s-1.1,0-1.8.1c-.7.1-1.3.2-1.9.5-.6.2-1.1.6-1.5,1s-.6,1-.6,1.7.3,1.6.9,2.1,1.4,1,2.4,1.4,2.1.7,3.4.9,2.6.5,3.9.8,2.6.6,3.8,1.1c1.3.4,2.4,1,3.4,1.7s1.8,1.6,2.4,2.7c.6,1.1.9,2.4.9,4s-.4,3.6-1.3,4.9c-.9,1.3-2,2.4-3.4,3.3-1.4.8-3,1.4-4.7,1.8-1.7.4-3.4.6-5.1.6s-3.9-.2-5.7-.7c-1.7-.5-3.2-1.2-4.5-2.1-1.3-.9-2.3-2.1-3-3.5s-1.1-3.1-1.2-5h7Z"/>
    </g>
  </g>
</svg>