<?xml version="1.0" encoding="UTF-8"?>
<svg id="Layer_1" xmlns="http://www.w3.org/2000/svg" version="1.1" viewBox="0 0 500 500">
  <!-- Generator: Adobe Illustrator 30.2.1, SVG Export Plug-In . SVG Version: 2.1.1 Build 1)  -->
  <defs>
    <style>
      .st0 {
        fill: #989898;
      }

      .st0, .st1, .st2 {
        display: none;
      }

      .st1 {
        fill: #676767;
      }

      .st3 {
        fill: #3d3e3e;
      }

      .st4 {
        fill: #ccc;
      }
    </style>
  </defs>
  <g id="Layer_2">
    <g class="st2">
      <path class="st4" d="M170.2,393.1c3.5,0,5.9,2.4,5.9,5.9v4.2c0,1.8-.7,3.3-2.6,4.5,2.1,1,2.9,2.7,2.9,4.5v4.9c0,3.5-2.4,5.9-5.9,5.9h-15.4v-29.7h15.1v-.2ZM168.7,405c1.1,0,1.4-.2,1.4-1.4v-3.5c0-.9-.5-1.4-1.4-1.4h-7.6v6.4h7.6ZM169,417.3c.9,0,1.4-.5,1.4-1.4v-4.3c0-1.2-.7-1.3-1.9-1.3h-7.4v7h7.9Z"/>
      <path class="st4" d="M201.2,393c3.5,0,5.9,2.4,5.9,5.9v18.3c0,3.5-2.4,5.9-5.9,5.9h-9.9c-3.5,0-5.9-2.4-5.9-5.9v-18.3c0-3.5,2.4-5.9,5.9-5.9h9.9ZM201.1,400c0-.9-.5-1.4-1.4-1.4h-7c-.9,0-1.4.5-1.4,1.4v16c0,.9.5,1.4,1.4,1.4h7c.9,0,1.4-.5,1.4-1.4v-16Z"/>
      <path class="st4" d="M239.9,393.1v29.7h-6.4l-10.9-20.3v20.3h-5.6v-29.7h6.4l10.9,20.3v-20.3h5.6Z"/>
      <path class="st4" d="M250.5,393.1h19.5v5.6h-13.5v6.4h10.9v5.6h-10.9v12.1h-5.9v-29.7h-.1Z"/>
      <path class="st4" d="M278.6,393.1h5.9v29.7h-5.9v-29.7Z"/>
      <path class="st4" d="M310.7,422.9l-4.8-11h-4.8v11h-5.9v-29.7h15.1c3.5,0,5.9,2.4,5.9,5.9v7c0,2.8-1.6,4.9-4,5.6l5,11.3h-6.5ZM310.3,400.2c0-.9-.5-1.4-1.4-1.4h-7.7v7.6h7.7c.9,0,1.4-.5,1.4-1.4v-4.8Z"/>
      <path class="st4" d="M345.6,393.1v5.6h-13.5v6.1h10.9v5.6h-10.9v6.8h13.5v5.6h-19.4v-29.7h19.4Z"/>
    </g>
    <polygon class="st1" points="402.8 352.1 352.4 282 250 141.4 250 141.4 147.6 282 97.2 352.1 97 352.3 97.5 352.3 142.5 352.3 250 204.8 357.5 352.3 402.5 352.3 403 352.3 402.8 352.1"/>
    <polygon class="st0" points="250 215.7 150.6 352.3 196.8 352.3 250 279.2 250 279.2 303.2 352.3 349.4 352.3 250 215.7"/>
    <polygon class="st2" points="405.8 312.4 248 336 88.9 311.9 248.1 90.6 405.8 312.4"/>
  </g>
  <g id="Layer_11" data-name="Layer_1">
    <g class="st2">
      <path class="st4" d="M181.4,399.1c2.7,0,4.5,1.8,4.5,4.5v3.2c0,1.3-.6,2.6-2,3.5,1.6.8,2.3,2.1,2.3,3.5v3.8c0,2.7-1.8,4.5-4.5,4.5h-11.9v-23h11.6ZM180.2,408.3c.9,0,1.1-.2,1.1-1.1v-2.8c0-.7-.4-1.1-1.1-1.1h-5.9v4.9h5.9ZM180.5,417.8c.7,0,1.1-.4,1.1-1.1v-3.3c0-.9-.6-1-1.5-1h-5.8v5.5h6.2Z"/>
      <path class="st4" d="M205.5,398.9c2.7,0,4.5,1.8,4.5,4.5v14.2c0,2.7-1.8,4.5-4.5,4.5h-7.7c-2.7,0-4.5-1.8-4.5-4.5v-14.2c0-2.7,1.8-4.5,4.5-4.5h7.7ZM205.5,404.4c0-.7-.4-1.1-1.1-1.1h-5.4c-.7,0-1.1.4-1.1,1.1v12.4c0,.7.4,1.1,1.1,1.1h5.4c.7,0,1.1-.4,1.1-1.1v-12.4Z"/>
      <path class="st4" d="M235.7,399.1v23h-5l-8.5-15.7v15.7h-4.4v-23h5l8.5,15.7v-15.7h4.4Z"/>
      <path class="st4" d="M244,399.1h15.1v4.3h-10.5v4.9h8.5v4.3h-8.5v9.4h-4.6v-22.9Z"/>
      <path class="st4" d="M265.8,399.1h4.6v23h-4.6v-23Z"/>
      <path class="st4" d="M290.9,422.1l-3.7-8.5h-3.7v8.5h-4.6v-23h11.8c2.7,0,4.5,1.8,4.5,4.5v5.4c0,2.1-1.2,3.8-3.2,4.3l3.8,8.7h-4.9ZM290.5,404.5c0-.7-.4-1.1-1.1-1.1h-6v5.9h6c.7,0,1.1-.4,1.1-1.1v-3.7Z"/>
      <path class="st4" d="M318,399.1v4.3h-10.5v4.7h8.5v4.3h-8.5v5.2h10.5v4.3h-15.1v-23h15.1v.2Z"/>
    </g>
  </g>
  <path class="st3" d="M412.3,222.6c2.3-.1,4.4-.7,6.3-1.8,1.9,1,4.1,1.7,6.3,1.8.4,7.8,6.8,14.1,14.7,14.1s14.8-6.6,14.8-14.8-6.2-14.4-14.1-14.7c-.4-7.8-6.8-14.1-14.7-14.1s-4.9.6-7,1.8c-2.1-1.1-4.5-1.8-7-1.8-7.9,0-14.4,6.2-14.7,14.1-4.2.2-8,2.2-10.5,5.2.5-1.4.7-2.9.7-4.5,0-8.1-6.6-14.8-14.8-14.8s-14.8,6.6-14.8,14.8.6,4.9,1.8,7c-.4.8-.8,1.6-1.1,2.5-1.8-5.7-7.1-9.9-13.4-10.2-.4-7.8-6.8-14.1-14.7-14.1s-14.8,6.6-14.8,14.8.2,3.1.7,4.5c-2.6-3-6.3-5-10.5-5.2-.4-7.8-6.8-14.1-14.7-14.1s-4.9.6-7,1.8c-2.1-1.1-4.5-1.8-7-1.8-7.9,0-14.4,6.2-14.7,14.1-5.1.2-9.5,3-12,7.1-2.5-4.1-6.9-6.9-12-7.1-.4-7.8-6.8-14.1-14.7-14.1s-4.9.6-7,1.8c-2.1-1.1-4.5-1.8-7-1.8-7.9,0-14.4,6.2-14.7,14.1-5.1.2-9.5,3-12,7.1-2.5-4.1-6.9-6.9-12-7.1-.4-7.8-6.8-14.1-14.7-14.1s-4.9.6-7,1.8c-2.1-1.1-4.5-1.8-7-1.8s-4.9.6-7,1.8c-2.1-1.1-4.5-1.8-7-1.8-8.1,0-14.8,6.6-14.8,14.8s.2,3.1.7,4.5c-2.6-3-6.3-5-10.5-5.2-.4-7.8-6.8-14.1-14.7-14.1s-4.9.6-7,1.8c-2.1-1.1-4.5-1.8-7-1.8-7.9,0-14.4,6.2-14.7,14.1-7.8.4-14.1,6.8-14.1,14.7s.6,4.9,1.8,7c-1.1,2.1-1.8,4.5-1.8,7s.6,4.9,1.8,7c-1.1,2.1-1.8,4.5-1.8,7s.6,4.9,1.8,7c-1.1,2.1-1.8,4.5-1.8,7s.6,4.9,1.8,7c-1.1,2.1-1.8,4.5-1.8,7,0,7.9,6.2,14.4,14.1,14.7.4,7.8,6.8,14.1,14.7,14.1s4.9-.6,7-1.8c2.1,1.1,4.5,1.8,7,1.8,7.9,0,14.4-6.2,14.7-14.1,4.2-.2,8-2.2,10.5-5.2-.5,1.4-.7,2.9-.7,4.5,0,8.1,6.6,14.8,14.8,14.8s14.8-6.6,14.8-14.8-.6-4.9-1.8-7c1.1-2.1,1.8-4.5,1.8-7s-.6-4.9-1.8-7c1-1.9,1.7-4.1,1.8-6.3,2.3-.1,4.4-.7,6.3-1.8,1.9,1,4.1,1.7,6.3,1.8.1,2.3.7,4.4,1.8,6.3-1.1,2.1-1.8,4.5-1.8,7s.6,4.9,1.8,7c-1.1,2.1-1.8,4.5-1.8,7,0,8.1,6.6,14.8,14.8,14.8s14.8-6.6,14.8-14.8-.2-3.1-.7-4.5c2.6,3,6.3,5,10.5,5.2.4,7.8,6.8,14.1,14.7,14.1s4.9-.6,7-1.8c2.1,1.1,4.5,1.8,7,1.8,7.9,0,14.4-6.2,14.7-14.1,4.2-.2,8-2.2,10.5-5.2-.5,1.4-.7,2.9-.7,4.5,0,8.1,6.6,14.8,14.8,14.8s14.8-6.6,14.8-14.8-.6-4.9-1.8-7c1.1-2.1,1.8-4.5,1.8-7s-.6-4.9-1.8-7c1-1.9,1.7-4.1,1.8-6.3,2.3-.1,4.4-.7,6.3-1.8,1.9,1,4.1,1.7,6.3,1.8.1,2.3.7,4.4,1.8,6.3-1.1,2.1-1.8,4.5-1.8,7s.6,4.9,1.8,7c-1.1,2.1-1.8,4.5-1.8,7,0,8.1,6.6,14.8,14.8,14.8s10.1-2.9,12.6-7.2c2.6,4.3,7.3,7.2,12.6,7.2,8.1,0,14.8-6.6,14.8-14.8s-.6-4.9-1.8-7c1.1-2.1,1.8-4.5,1.8-7s-.6-4.9-1.8-7c1.1-2.1,1.8-4.5,1.8-7s-.6-4.9-1.8-7c1.1-2.1,1.8-4.5,1.8-7s-.6-4.9-1.8-7c.4-.8.8-1.6,1.1-2.5,1.8,5.7,7.1,9.9,13.4,10.2.1,2.3.7,4.4,1.8,6.3-1.1,2.1-1.8,4.5-1.8,7s.6,4.9,1.8,7c-1.1,2.1-1.8,4.5-1.8,7s.6,4.9,1.8,7c-1.1,2.1-1.8,4.5-1.8,7,0,8.1,6.6,14.8,14.8,14.8s14.8-6.6,14.8-14.8-.2-3.1-.7-4.5c2.6,3,6.3,5,10.5,5.2.4,7.8,6.8,14.1,14.7,14.1s4.9-.6,7-1.8c2.1,1.1,4.5,1.8,7,1.8,7.9,0,14.4-6.2,14.7-14.1,7.8-.4,14.1-6.8,14.1-14.7s-.6-4.9-1.8-7c1.1-2.1,1.8-4.5,1.8-7,0-7.6-5.7-13.8-13-14.7-.3-7.8-6.8-14.1-14.7-14.1s-4.9.6-7,1.8c-2.1-1.1-4.5-1.8-7-1.8h-.4c-.1-2.3-.7-4.5-1.8-6.4.8-1.7,1.5-3.8,1.6-6.1ZM75.1,277.4c0-2.3-.7-4.4-1.8-6.3,1.1-2.1,1.8-4.5,1.8-7s-.6-4.9-1.8-7c1.1-2.1,1.8-4.5,1.8-7s-.6-4.9-1.8-7c1.1-2.1,1.8-4.5,1.8-7s-.6-4.9-1.8-7c1-1.9,1.7-4.1,1.8-6.3,2.3-.1,4.4-.7,6.3-1.8,1.9,1,4.1,1.7,6.3,1.8,0,2.3.7,4.4,1.8,6.3-1.1,2.1-1.8,4.5-1.8,7s.6,4.9,1.8,7c-1.1,2.1-1.8,4.5-1.8,7s.6,4.9,1.8,7c-1.1,2.1-1.8,4.5-1.8,7s.6,4.9,1.8,7c-1,1.9-1.7,4.1-1.8,6.3-2.3.1-4.4.7-6.3,1.8-1.9-1.1-4.1-1.7-6.3-1.8ZM142.5,235.3c-.1-2.3-.7-4.4-1.8-6.3,1-1.9,1.7-4.1,1.8-6.3,2.3-.1,4.4-.7,6.3-1.8,1.9,1,4.1,1.7,6.3,1.8.1,2.3.7,4.4,1.8,6.3-1,1.9-1.7,4.1-1.8,6.3-2.3.1-4.4.7-6.3,1.8-1.9-1.1-4-1.7-6.3-1.8ZM222.6,222.6c.3,6.3,4.5,11.5,10.2,13.4-.9.3-1.7.6-2.5,1.1-2.1-1.1-4.5-1.8-7-1.8-6.6,0-12.1,4.3-14.1,10.2-.3-.9-.6-1.7-1.1-2.5,1.1-2.1,1.8-4.5,1.8-7s-.6-4.9-1.8-7c1-1.9,1.7-4.1,1.8-6.3,2.3-.1,4.4-.7,6.3-1.8,2,1,4.1,1.6,6.4,1.7ZM181.1,245.5c-.5,1.4-.7,2.9-.7,4.5s.2,3.1.7,4.5c-1.8-2.1-4.1-3.6-6.7-4.5,2.7-.8,5-2.4,6.7-4.5ZM209.9,277.4c-.1-2.3-.7-4.4-1.8-6.3,1.1-2.1,1.8-4.5,1.8-7s-.6-4.9-1.8-7c.4-.8.8-1.6,1.1-2.5,1.8,5.7,7.1,9.9,13.4,10.2.1,2.3.7,4.4,1.8,6.3-1,1.9-1.7,4.1-1.8,6.3-2.3.1-4.4.7-6.3,1.8-1.9-1.1-4.1-1.7-6.4-1.8ZM277.4,235.3c-.1-2.3-.7-4.4-1.8-6.3,1-1.9,1.7-4.1,1.8-6.3,2.3-.1,4.4-.7,6.3-1.8,1.9,1,4.1,1.7,6.3,1.8.1,2.3.7,4.4,1.8,6.3-1,1.9-1.7,4.1-1.8,6.3-2.3.1-4.4.7-6.3,1.8-1.9-1.1-4-1.7-6.3-1.8ZM248.6,231.5c-.5,1.4-.7,2.9-.7,4.5s.2,3.1.7,4.5c-1.8-2.1-4.1-3.6-6.7-4.5,2.6-.9,4.9-2.5,6.7-4.5ZM386.3,268.5c.5-1.4.7-2.9.7-4.5,0-2.5-.6-4.9-1.8-7,1.1-2.1,1.8-4.5,1.8-7s-.2-3.1-.7-4.5c2.7,3.2,6.7,5.2,11.2,5.2h.4c.3,7.9,6.8,14.1,14.7,14.1s4.9-.6,7-1.8c1.6.9,3.4,1.4,5.3,1.7.1,2.3.7,4.5,1.8,6.4-1,1.9-1.7,4.1-1.8,6.3-2.3.1-4.4.7-6.3,1.8-1.9-1-4.1-1.7-6.3-1.8-.4-7.8-6.8-14.1-14.7-14.1s-8.6,2.1-11.3,5.2Z"/>
</svg>