<?xml version="1.0" encoding="UTF-8"?>
<svg id="ALONGSIDE_logo" xmlns="http://www.w3.org/2000/svg" viewBox="0 0 851.18 83.45">
  <path d="M816.03,82.18L851.18,1.5h-18.32l-35.16,80.68h18.32Z"/>
  <polygon points="124.46 1.5 106.25 1.5 106.25 82.18 158.93 82.18 158.93 66.85 124.46 66.85 124.46 1.5"/>
  <path d="M243.52,12.22c-3.92-3.76-8.51-6.69-13.77-8.76-5.26-2.07-10.97-3.11-17.12-3.11s-11.85,1.04-17.12,3.11c-5.26,2.07-9.85,4.98-13.77,8.7-3.92,3.73-6.97,8.11-9.16,13.14-2.19,5.03-3.29,10.51-3.29,16.43s1.09,11.3,3.29,16.37c2.19,5.07,5.24,9.51,9.16,13.31,3.92,3.8,8.51,6.76,13.77,8.87,5.26,2.11,10.97,3.17,17.12,3.17s11.85-1.06,17.12-3.17c5.26-2.11,9.85-5.07,13.77-8.87,3.92-3.8,6.97-8.24,9.16-13.31,2.19-5.07,3.28-10.53,3.28-16.37s-1.09-11.37-3.28-16.37c-2.19-4.99-5.24-9.37-9.16-13.14ZM235.39,52.04c-1.27,3.19-3.02,5.99-5.24,8.41-2.23,2.42-4.82,4.31-7.78,5.65-2.96,1.35-6.13,2.02-9.51,2.02s-6.57-.67-9.57-2.02c-3-1.34-5.65-3.23-7.95-5.65-2.31-2.42-4.11-5.22-5.42-8.41-1.31-3.19-1.96-6.63-1.96-10.32s.65-7.11,1.96-10.26c1.31-3.15,3.09-5.92,5.36-8.3,2.27-2.38,4.92-4.22,7.95-5.53,3.03-1.31,6.24-1.96,9.62-1.96s6.55.65,9.51,1.96c2.96,1.31,5.55,3.15,7.78,5.53,2.23,2.38,3.98,5.15,5.24,8.3,1.27,3.15,1.9,6.57,1.9,10.26s-.63,7.13-1.9,10.32Z"/>
  <polygon points="331.87 54.37 292.69 1.5 276.09 1.5 276.09 82.18 293.49 82.18 293.49 29.57 332.57 82.18 349.05 82.18 349.05 1.5 331.87 1.5 331.87 54.37"/>
  <path d="M529.98,48.35c-1.5-2.8-3.54-5.11-6.11-6.92-2.58-1.8-5.38-3.29-8.41-4.44-3.04-1.15-6.09-2.17-9.16-3.05-3.07-.88-5.88-1.77-8.41-2.65-2.54-.88-4.59-2.04-6.17-3.46-1.58-1.42-2.36-3.25-2.36-5.48,0-2.38.94-4.17,2.82-5.36,1.88-1.19,4.36-1.79,7.43-1.79,2.23,0,4.74.33,7.55.98,2.8.65,5.72,1.58,8.76,2.77,2.64,1.04,5.2,2.34,7.7,3.81l6.49-14.89c-3.62-2.15-7.74-3.97-12.4-5.4-5.38-1.65-10.91-2.48-16.6-2.48-6.22,0-11.68.98-16.37,2.94-4.69,1.96-8.34,4.73-10.95,8.3-2.61,3.57-3.92,7.82-3.92,12.74,0,4.15.79,7.57,2.36,10.26,1.57,2.69,3.63,4.9,6.17,6.63,2.54,1.73,5.34,3.15,8.41,4.26,3.07,1.11,6.15,2.07,9.22,2.88,3.07.81,5.88,1.69,8.41,2.65,2.54.96,4.57,2.13,6.11,3.52,1.54,1.38,2.31,3.23,2.31,5.53,0,2.69-1.06,4.77-3.17,6.22-2.11,1.46-5.05,2.19-8.82,2.19-2.84,0-5.96-.5-9.34-1.5-3.38-1-6.74-2.42-10.09-4.27-2.84-1.57-5.43-3.41-7.86-5.42l-6.47,14.84c2.53,1.94,5.23,3.74,8.21,5.28,3.8,1.96,7.86,3.48,12.16,4.55,4.3,1.08,8.68,1.61,13.14,1.61,5.92,0,11.28-.96,16.08-2.88,4.8-1.92,8.59-4.69,11.35-8.3,2.77-3.61,4.15-8.03,4.15-13.25,0-4.15-.75-7.63-2.25-10.43Z"/>
  <rect x="555.03" y="1.5" width="18.21" height="80.68"/>
  <path d="M664.9,12.74c-3.77-3.57-8.24-6.34-13.43-8.3-5.19-1.96-10.93-2.94-17.23-2.94h-34.12v80.68h33.54c6.38,0,12.2-.98,17.46-2.94,5.26-1.96,9.82-4.74,13.66-8.36,3.84-3.61,6.8-7.88,8.88-12.79,2.07-4.92,3.11-10.33,3.11-16.25s-1.04-11.45-3.11-16.37c-2.07-4.92-5-9.16-8.76-12.74ZM656.49,52.21c-1.15,3.07-2.79,5.74-4.9,8.01-2.11,2.27-4.59,4.02-7.43,5.24-2.84,1.23-5.99,1.84-9.45,1.84h-16.37V16.25h15.56c3.53,0,6.78.62,9.74,1.84,2.96,1.23,5.51,3.02,7.67,5.36,2.15,2.34,3.84,5.07,5.07,8.18,1.23,3.11,1.84,6.55,1.84,10.32s-.58,7.19-1.73,10.26Z"/>
  <path d="M70.3,82.18h18.32L53.47,1.51v-.02s0,0,0,0h-18.32,0S0,82.18,0,82.18h18.32l7.06-16.2h37.86l7.06,16.2ZM31.53,51.87l12.78-29.33,12.78,29.33h-25.56Z"/>
  <polygon points="757.93 67.62 757.93 67.54 713.44 67.54 713.44 48.99 752.29 48.99 752.29 34.35 713.44 34.35 713.44 16.14 756.67 16.14 756.67 1.5 695.23 1.5 695.23 82.18 751.59 82.18 757.93 67.62"/>
  <path d="M428.15,41.61v23.1c-.88.41-1.73.87-2.65,1.22-3.84,1.46-7.42,2.19-10.72,2.19-3.61,0-6.95-.67-10.03-2.02-3.08-1.34-5.76-3.23-8.07-5.65-2.31-2.42-4.11-5.22-5.42-8.41-1.31-3.19-1.96-6.63-1.96-10.32s.63-7.11,1.9-10.26c1.27-3.15,3.05-5.92,5.36-8.3,2.3-2.38,4.99-4.24,8.07-5.59,3.07-1.34,6.41-2.02,10.03-2.02,3.92,0,7.86.81,11.81,2.42,3.95,1.61,7.39,3.84,10.3,6.67l6.66-15.28c-1.78-1.27-3.66-2.46-5.72-3.49-3.54-1.77-7.26-3.13-11.18-4.09-3.92-.96-7.88-1.44-11.87-1.44-6.22,0-12.03,1.04-17.4,3.11-5.38,2.07-10.05,5-14,8.76-3.96,3.77-7.05,8.17-9.28,13.2-2.23,5.03-3.34,10.47-3.34,16.31s1.08,11.32,3.23,16.43c2.15,5.11,5.19,9.55,9.11,13.31,3.92,3.77,8.47,6.71,13.66,8.82,5.19,2.11,10.85,3.17,17,3.17,3.69,0,7.53-.46,11.53-1.38,3.99-.92,7.82-2.19,11.47-3.8,3.65-1.61,6.9-3.42,9.74-5.42v-31.24h0s-18.21,0-18.21,0Z"/>
</svg>