<?xml version="1.0" encoding="UTF-8"?>
<svg id="Layer_2" data-name="Layer 2" xmlns="http://www.w3.org/2000/svg" viewBox="0 0 1346 142">
  <defs>
    <style>
      .cls-1 {
        fill: #fff;
      }
    </style>
  </defs>
  <g id="Layer_1-2" data-name="Layer 1">
    <g>
      <path class="cls-1" d="M0,4V0h1346v4c-26.83-.19-53.7.24-80.54.04-17.61-.13-37.68-4.62-53.76,5.16-15.68,9.53-21.35,29.89-12.52,46.13,1.25,2.3,7.53,8.58,6.82,9.66-36.15,22.04-21.87,71.31,20.46,74.07,34.45,2.24,79.22,1.21,114.1,0,1.9-.07,3.78.1,5.45-1.04v4H0v-4c1.67,1.13,3.55.98,5.45,1.04,35.19,1.06,79.38,2.27,114.1,0,42.33-2.76,56.6-52.02,20.46-74.07v-1.45c17-15.26,13.63-42.58-5.7-54.33C118.22-.58,98.15,3.91,80.54,4.04c-26.84.2-53.71-.23-80.54-.04ZM239,29c-.03-9.32.02-18.68,0-28h-28v28c9.32.02,18.68-.03,28,0,.03,9.32-.02,18.68,0,28-9.32.05-18.68-.04-28,0v28c9.32.04,18.68-.05,28,0-.02,9.32.03,18.68,0,28-9.32.03-18.68-.02-28,0v28h28c.02-9.32-.03-18.68,0-28,9.32-.03,18.68.02,28,0,.05,9.32-.04,18.68,0,28h28c.04-9.32-.05-18.68,0-28,9.32.02,18.68-.03,28,0,.03,9.32-.02,18.68,0,28h28v-28c-9.32-.02-18.68.03-28,0-.03-9.32.02-18.68,0-28,9.32-.05,18.68.04,28,0v-28c-9.32-.04-18.68.05-28,0,.02-9.32-.03-18.68,0-28,9.32-.03,18.68.02,28,0V1h-28c-.02,9.32.03,18.68,0,28-9.32.03-18.68-.02-28,0-.05-9.32.04-18.68,0-28h-28c-.04,9.32.05,18.68,0,28-9.32-.02-18.68.03-28,0ZM545,78l-3.01-1.49L461.5,4h-53.5v135h50V59l89.5,80h47.5V4h-50v74ZM802,4h-151v133.5l1.5,1.5h49.5v-51h100v-37h-100c.45-3.57-1.35-8.36,1.5-11h98.5V4ZM909,4h-51v133.5l1.5,1.5h49.5V4ZM1140,139l-27.99-45.44c25.1-11.22,37.72-39.4,24.81-64.88-5.45-10.75-21.84-24.68-34.32-24.68h-137.5v135h51v-43h41.5l28,43h54.5Z"/>
      <path class="cls-1" d="M295,29c.05,9.32-.04,18.69,0,28.01,9.32.03,18.69-.06,28.01,0-.02,9.32-.02,18.68,0,28-9.32.05-18.69-.04-28.01,0-.03,9.32.06,18.69,0,28.01-9.32-.02-18.68-.02-28,0-.05-9.32.04-18.69,0-28.01-9.32-.03-18.69.06-28.01,0,.02-9.32.02-18.68,0-28,9.32-.05,18.69.04,28.01,0,.03-9.32-.06-18.69,0-28.01,9.32.02,18.68.02,28,0Z"/>
      <path d="M0,4c26.83-.19,53.7.24,80.54.04,17.61-.13,37.68-4.62,53.76,5.16,19.33,11.75,22.7,39.07,5.72,54.33v1.45c36.13,22.04,21.85,71.31-20.47,74.07-34.71,2.26-78.91,1.05-114.1,0-1.9-.06-3.78.09-5.45-1.04v-36l98.52.02c8.39-.79,10.64-10.91,1-12.04-31.3-.83-62.79,1.15-94.07.06-1.9-.07-3.79.1-5.45-1.04v-37l91.52.02c6.75-.78,9.81-6.49,4.04-11.09L0,39V4Z"/>
      <path d="M1346,4v35c-1.66,1.13-3.55.98-5.45,1.04-28.98.87-58.11-.69-87.1-.09-8.46,1.95-7.98,11.03,1.03,12.07l91.52-.02v37c-1.66,1.13-3.55.98-5.45,1.04-31.29.94-62.76-.77-94.07-.06-9.65,1.13-7.39,11.26,1,12.04l98.52-.02v36c-1.67,1.14-3.55.97-5.45,1.04-34.88,1.22-79.65,2.25-114.1,0-42.33-2.76-56.6-52.02-20.46-74.07.71-1.08-5.57-7.36-6.82-9.66-8.83-16.23-3.16-36.6,12.52-46.13,16.08-9.77,36.15-5.29,53.76-5.16,26.84.2,53.71-.23,80.54-.04Z"/>
      <path class="cls-1" d="M0,102v-13c1.66,1.14,3.55.97,5.45,1.04,31.27,1.09,62.77-.89,94.07-.06,9.65,1.13,7.39,11.26-1,12.04l-98.52-.02Z"/>
      <path class="cls-1" d="M1346,102l-98.52.02c-8.39-.79-10.64-10.91-1-12.04,31.31-.71,62.77,1,94.07.06,1.9-.06,3.79.09,5.45-1.04v13Z"/>
      <path class="cls-1" d="M0,52v-13l95.57,1.93c5.77,4.6,2.71,10.31-4.04,11.09l-91.52-.02Z"/>
      <path class="cls-1" d="M1346,52l-91.52.02c-9.01-1.04-9.49-10.13-1.03-12.07,28.99-.6,58.13.96,87.1.09,1.9-.06,3.79.09,5.45-1.04v13Z"/>
      <path d="M1140,139h-54.5l-28-43h-41.5v43h-51V4h137.5c12.48,0,28.87,13.93,34.32,24.68,12.91,25.49.29,53.67-24.81,64.88l27.99,45.44ZM1017.64,43.14c-2.86.94-1.63,10.29-1.2,12.92l67.09.96c9.67-1.13,10.04-12.69,1.91-13.96l-67.8.08Z"/>
      <polygon points="545 78 545 4 595 4 595 139 547.5 139 458 59 458 139 408 139 408 4 461.5 4 541.99 76.51 545 78"/>
      <path d="M802,4v36h-98.5c-2.85,2.64-1.05,7.43-1.5,11h100v37h-100v51h-49.5l-1.5-1.5V4h151Z"/>
      <polygon points="909 4 909 139 859.5 139 858 137.5 858 4 909 4"/>
      <path d="M239,29c-9.32-.03-18.68.02-28,0V1h28c.02,9.32-.03,18.68,0,28,9.32.03,18.68-.02,28,0-.05,9.32.04,18.69,0,28.01-9.32.03-18.69-.06-28.01,0-.02-9.32.03-18.68,0-28Z"/>
      <path d="M267,29c.05-9.32-.04-18.68,0-28h28c.04,9.32-.05,18.68,0,28-9.32.02-18.68.02-28,0Z"/>
      <path d="M323,29c.03-9.32-.02-18.68,0-28h28v28c-9.32.02-18.68-.03-28,0-.03,9.32.02,18.68,0,28-9.32-.05-18.69.04-28.01,0-.03-9.32.06-18.69,0-28.01,9.32-.02,18.68.03,28,0Z"/>
      <path d="M239,57c.02,9.32.02,18.68,0,28-9.32-.05-18.68.04-28,0v-28c9.32-.04,18.68.05,28,0Z"/>
      <path d="M323,57c9.32.05,18.68-.04,28,0v28c-9.32.04-18.68-.05-28,0-.02-9.32-.02-18.68,0-28Z"/>
      <path d="M239,85c9.32.05,18.69-.04,28.01,0,.03,9.32-.06,18.69,0,28.01-9.32.02-18.68-.03-28,0-.03,9.32.02,18.68,0,28h-28v-28c9.32-.02,18.68.03,28,0,.03-9.32-.02-18.68,0-28Z"/>
      <path d="M323,85c.02,9.32-.03,18.68,0,28,9.32.03,18.68-.02,28,0v28h-28c-.02-9.32.03-18.68,0-28-9.32-.03-18.68.02-28,0,.05-9.32-.04-18.69,0-28.01,9.32-.03,18.69.06,28.01,0Z"/>
      <path d="M295,113c-.05,9.32.04,18.68,0,28h-28c-.04-9.32.05-18.68,0-28,9.32-.02,18.68-.02,28,0Z"/>
      <path class="cls-1" d="M1017.64,43.14l67.8-.08c8.12,1.27,7.75,12.82-1.91,13.96l-67.09-.96c-.42-2.63-1.65-11.99,1.2-12.92Z"/>
    </g>
  </g>
</svg>