<?xml version="1.0" encoding="UTF-8"?>
<svg id="Layer_2" data-name="Layer 2" xmlns="http://www.w3.org/2000/svg" viewBox="0 0 200.69 225.23">
  <defs>
    <style>
      .cls-1 {
        fill: #1e1a1c;
      }
    </style>
  </defs>
  <g id="Layer_1-2" data-name="Layer 1">
    <g>
      <rect class="cls-1" x="107.34" y=".68" width="3.08" height="59.32"/>
      <polygon class="cls-1" points="130.89 40.2 130.89 44.15 140.15 60 143.67 60 131.83 40.2 130.89 40.2"/>
      <polygon class="cls-1" points="183.23 204.78 183.23 208.73 192.49 224.58 196.02 224.58 184.17 204.78 183.23 204.78"/>
      <path class="cls-1" d="M128.5,35.42h0v-.08l.04.49c10-.73,16.46-7.6,16.46-17.49,0-10.73-7.16-17.66-18.24-17.66h-9.66v2.91h9.58c9.26,0,15.25,5.79,15.25,14.75s-5.99,14.67-15.25,14.67h-9.58v2.91h11.41v-.5Z"/>
      <rect class="cls-1" y=".68" width="3.08" height="59.32"/>
      <rect class="cls-1" x="40.33" y=".68" width="3.08" height="59.32"/>
      <polygon class="cls-1" points="33.16 29.84 33.16 29.84 33.16 28.92 33.16 28.92 33.16 27.93 9.75 27.93 9.75 30.84 33.16 30.84 33.16 29.84"/>
      <rect class="cls-1" x="57.01" y=".69" width="3.08" height="59.32"/>
      <rect class="cls-1" x="66.76" y="57.01" width="27.98" height="2.99"/>
      <rect class="cls-1" x="66.76" y="28.43" width="24.98" height="2.91"/>
      <rect class="cls-1" x="66.76" y=".69" width="27.98" height="2.99"/>
      <path class="cls-1" d="M174.6,60.59l.58.1v-2.89l-.4-.08c-4.85-.93-8.64-3.69-11.28-8.2-2.75-4.71-4.14-11.1-4.14-19s1.39-14.45,4.14-19.22c2.64-4.58,6.43-7.38,11.28-8.32l.4-.08V0l-.58.1c-11.6,2-18.26,13.08-18.26,30.41s6.66,28.1,18.26,30.07Z"/>
      <path class="cls-1" d="M200.69,30.51c0-17.34-6.66-28.43-18.26-30.41l-.58-.1v2.9l.4.08c9.8,1.92,15.42,11.96,15.42,27.54,0,8.28-1.52,14.89-4.53,19.64-2.62,4.15-6.28,6.69-10.89,7.56l-.4.08v2.89l.58-.1c11.61-1.97,18.26-12.93,18.26-30.07Z"/>
      <rect class="cls-1" x="159.69" y="165.22" width="3.08" height="59.32"/>
      <path class="cls-1" d="M179.1,165.22h-9.66v2.91h9.58c9.26,0,15.25,5.79,15.25,14.75s-5.99,14.67-15.25,14.67h-9.58v2.91h11.41v-.58l.04.5c10-.73,16.46-7.6,16.46-17.49,0-10.73-7.16-17.66-18.24-17.66Z"/>
      <rect class="cls-1" y="165.26" width="3.08" height="59.32"/>
      <path class="cls-1" d="M10.26,165.28l-.51-.02v2.91l.48.02c14.81.53,24.38,10.99,24.38,26.64s-9.8,26.28-24.38,26.81l-.48.02v2.91l.51-.02c16.35-.57,27.34-12.51,27.34-29.72s-10.99-28.99-27.34-29.55Z"/>
      <path class="cls-1" d="M48.29,195.05c0,17.13,6.66,28.1,18.26,30.08l.58.1v-2.89l-.4-.08c-4.85-.93-8.64-3.69-11.28-8.2-2.75-4.71-4.14-11.1-4.14-19s1.39-14.45,4.14-19.22c2.64-4.58,6.43-7.38,11.28-8.32l.4-.08v-2.9l-.58.1c-11.6,2-18.26,13.08-18.26,30.41Z"/>
      <path class="cls-1" d="M74.38,164.64l-.58-.1v2.9l.4.08c9.8,1.92,15.42,11.95,15.42,27.53,0,8.28-1.52,14.89-4.53,19.64-2.62,4.15-6.28,6.69-10.89,7.56l-.4.08v2.89l.58-.1c11.61-1.97,18.26-12.93,18.26-30.08s-6.66-28.43-18.26-30.41Z"/>
      <path class="cls-1" d="M102.18,195.05c0,17.13,6.66,28.1,18.26,30.08l.58.1v-2.89l-.4-.08c-4.85-.93-8.64-3.69-11.28-8.2-2.75-4.71-4.14-11.1-4.14-19s1.39-14.45,4.14-19.22c2.64-4.58,6.43-7.38,11.28-8.32l.4-.08v-2.9l-.58.1c-11.6,2-18.26,13.08-18.26,30.41Z"/>
      <path class="cls-1" d="M128.28,164.64l-.58-.1v2.9l.4.08c9.8,1.92,15.42,11.95,15.42,27.53,0,8.28-1.52,14.89-4.53,19.64-2.62,4.15-6.28,6.69-10.89,7.56l-.4.08v2.89l.58-.1c11.61-1.97,18.26-12.93,18.26-30.08s-6.66-28.43-18.26-30.41Z"/>
      <polygon class="cls-1" points=".91 82.2 0 82.2 0 85.78 42.49 143.35 43.4 143.35 43.4 139.69 1.06 82.4 .91 82.2"/>
      <polygon class="cls-1" points="2.99 99.69 0 95.82 0 142.43 2.99 142.43 2.99 99.69"/>
      <polygon class="cls-1" points="40.41 125.87 43.4 129.61 43.4 83.12 40.41 83.12 40.41 125.87"/>
      <polygon class="cls-1" points="104.46 83.12 144.41 142.43 147.88 142.43 107.93 83.12 104.46 83.12"/>
      <polygon class="cls-1" points="129.77 104.85 131.5 107.43 147.88 83.12 144.41 83.12 129.77 104.85"/>
      <polygon class="cls-1" points="104.46 142.43 107.93 142.43 122.46 120.85 120.73 118.27 104.46 142.43"/>
      <rect class="cls-1" x="66.76" y="110.82" width="24.98" height="2.91"/>
      <rect class="cls-1" x="66.76" y="83.08" width="27.98" height="2.99"/>
      <rect class="cls-1" x="57.01" y="83.08" width="3.08" height="59.32"/>
      <rect class="cls-1" x="66.76" y="139.4" width="27.98" height="2.99"/>
      <rect class="cls-1" x="176.97" y="92.7" width="3.08" height="49.73"/>
      <rect class="cls-1" x="156.81" y="83.12" width="43.4" height="2.91"/>
    </g>
  </g>
</svg>