<?xml version="1.0" encoding="UTF-8"?>
<svg id="Logos" xmlns="http://www.w3.org/2000/svg" viewBox="0 0 300 120">
  <defs>
    <style>
      .cls-1 {
        fill: #06074a;
      }
    </style>
  </defs>
  <rect class="cls-1" x="183.66" y="37.82" width="3.58" height="3.21"/>
  <rect class="cls-1" x="183.66" y="43.13" width="3.58" height="13.51"/>
  <polygon class="cls-1" points="128.67 57.06 128.66 57.06 128.66 57.06 128.67 57.06"/>
  <path class="cls-1" d="M132.92,71.51v-.08c1.97-.67,2.95-1.92,2.95-3.77,0-1.46-.5-2.63-1.5-3.53-1.02-.91-2.53-1.37-4.55-1.37h-8.43v18.83h0s8.63,0,8.63,0c2.02,0,3.6-.5,4.74-1.5,1.11-.95,1.66-2.26,1.66-3.92,0-1.14-.32-2.13-.96-2.95-.64-.82-1.49-1.4-2.54-1.71ZM125.21,65.87h4.21c.84,0,1.5.2,1.99.58.48.39.72.91.72,1.63s-.25,1.28-.76,1.67c-.52.4-1.19.59-2.03.59h-4.13v-4.48ZM131.76,77.73c-.52.47-1.25.7-2.16.7h-4.4v-5.26h4.29c.9,0,1.63.24,2.2.71.57.47.86,1.14.86,2,0,.77-.26,1.39-.79,1.86Z"/>
  <path class="cls-1" d="M131.15,53.38c-.69.4-1.57.59-2.63.59-1.35,0-2.37-.25-3.04-.74-.67-.49-1.07-1.3-1.19-2.42h-3.74c.07,2,.8,3.54,2.21,4.62,1.4,1.07,3.37,1.61,5.91,1.62,2.18,0,3.94-.52,5.29-1.58,1.35-1.06,2.03-2.51,2.03-4.37,0-.79-.13-1.48-.38-2.09-.26-.61-.57-1.09-.95-1.47s-.91-.7-1.58-1.01c-.67-.31-1.3-.54-1.88-.71-.58-.17-1.33-.35-2.24-.54-1.53-.33-2.6-.67-3.2-1-.61-.33-.91-.86-.91-1.58,0-.67.31-1.2.92-1.6.62-.4,1.48-.6,2.48-.6s1.84.25,2.49.74c.65.49,1.04,1.19,1.14,2.11h3.66c-.14-1.88-.85-3.33-2.13-4.35-1.28-1.02-2.98-1.53-5.14-1.53s-3.91.49-5.23,1.47c-1.33.97-1.99,2.36-1.99,4.18,0,.76.12,1.43.37,2.02.25.58.55,1.06.91,1.42.36.36.86.69,1.48.99.62.3,1.19.52,1.71.65.52.14,1.18.31,1.99.5.67.16,1.13.26,1.37.33.25.06.61.16,1.08.29.47.13.8.26.97.37.17.11.38.26.63.45s.42.39.49.63c.08.24.12.51.12.8,0,.83-.34,1.43-1.03,1.83Z"/>
  <path class="cls-1" d="M145.87,47.93c-.46.18-1.32.36-2.58.54-1.72.25-3.06.69-4,1.33-.94.64-1.42,1.7-1.42,3.02s.43,2.34,1.29,3.06c.86.72,2,1.08,3.42,1.08,1.08,0,1.91-.16,2.5-.47.6-.32,1.09-.77,1.48-1.35h.05c.11.77.25,1.28.42,1.5h0s3.45,0,3.45,0v-.13c-.32-.23-.48-.85-.48-1.87v-6.87c0-3.31-1.9-4.97-5.69-4.97-1.86,0-3.28.42-4.26,1.26-.98.84-1.5,1.91-1.55,3.19h3.19c.11-1.27.97-1.9,2.61-1.9.74,0,1.3.14,1.69.43.38.29.58.7.58,1.17s-.23.8-.69.99ZM146.63,49.84v2.03c0,.7-.28,1.31-.86,1.82-.57.51-1.35.76-2.33.76h0c-1.4,0-2.11-.57-2.11-1.72,0-.59.21-1.04.63-1.33.42-.28,1.14-.55,2.16-.77,1.28-.3,2.11-.56,2.5-.79Z"/>
  <path class="cls-1" d="M224.92,52.67v-7.16h2.31v-2.37h-2.31v-4.21h-3.5v4.21h-1.87v2.37h1.87v7.93c0,1.16.35,1.99,1.05,2.49.7.5,1.57.75,2.61.75.95,0,1.7-.01,2.24-.05v-2.63l-1.06.03c-.9,0-1.35-.45-1.35-1.35Z"/>
  <path class="cls-1" d="M214.05,44.56h-.05c-.86-1.19-2.02-1.79-3.74-1.79s-3.13.6-4.21,1.8c-1.09,1.2-1.63,2.85-1.63,4.8s.59,3.52,1.77,4.69c1.19,1.17,2.58,1.76,4.18,1.76,1.42,0,2.6-.53,3.53-1.58h.08v1.48c0,1.88-1,2.82-3,2.82-1.45,0-2.36-.5-2.71-1.5h-3.55c.19,1.33.84,2.37,1.94,3.11,1.09.74,2.56,1.11,4.38,1.11,2.16,0,3.78-.51,4.87-1.53,1.08-.98,1.61-2.35,1.61-4.11v-12.48h-3.45v1.42ZM213.36,51.93c-.53.68-1.33,1.02-2.4,1.02h0c-.93,0-1.67-.33-2.23-.97-.55-.64-.83-1.55-.83-2.67s.28-2.02.83-2.69c.55-.67,1.29-1,2.2-1,1.04,0,1.83.35,2.38,1.04.55.7.83,1.55.83,2.62s-.26,1.95-.79,2.63Z"/>
  <polygon class="cls-1" points="211.02 61.25 211.01 61.25 211.01 61.25 211.02 61.25"/>
  <path class="cls-1" d="M150.39,79.58v-6.87c0-3.31-1.9-4.97-5.69-4.97-1.86,0-3.28.42-4.26,1.26-.98.84-1.5,1.91-1.55,3.19h3.19c.11-1.27.97-1.9,2.61-1.9.74,0,1.3.14,1.69.43.38.29.58.7.58,1.17s-.23.8-.69.99c-.46.18-1.32.36-2.58.54-1.72.25-3.06.69-4,1.33-.94.64-1.42,1.7-1.42,3.02s.43,2.34,1.29,3.06c.86.72,2,1.08,3.42,1.08,1.08,0,1.91-.16,2.5-.47.6-.32,1.09-.77,1.48-1.35h.05c.11.77.25,1.28.42,1.5h0s3.45,0,3.45,0v-.13c-.32-.23-.48-.85-.48-1.87ZM147.01,76.82c0,.7-.28,1.31-.86,1.82-.57.51-1.35.76-2.33.76h0c-1.4,0-2.11-.57-2.11-1.72,0-.59.21-1.04.63-1.33.42-.28,1.14-.55,2.16-.77,1.28-.3,2.11-.56,2.5-.79v2.03Z"/>
  <path class="cls-1" d="M206.64,74.92c-.27-.27-.64-.52-1.12-.74-.48-.21-.89-.38-1.25-.47-.36-.09-.82-.2-1.38-.33-.2-.04-.46-.08-.79-.14-.33-.06-.6-.11-.79-.16-.2-.04-.43-.1-.69-.16-.26-.06-.47-.12-.6-.18-.14-.06-.28-.14-.43-.24-.14-.1-.25-.21-.31-.35-.06-.13-.09-.28-.09-.43,0-.48.2-.84.62-1.11.41-.26.97-.4,1.7-.4,1.6,0,2.47.66,2.61,1.97h3.24c-.14-1.38-.71-2.48-1.7-3.28-.99-.79-2.36-1.19-4.09-1.19-1.61,0-2.94.37-3.96,1.11-1.02.74-1.54,1.81-1.54,3.21,0,.7.13,1.31.38,1.8.26.5.64.89,1.14,1.18.52.28,1,.5,1.47.65.47.15,1.07.3,1.8.43.14.04.39.08.75.14.36.06.62.11.76.14.14.03.36.09.64.16.28.07.48.14.59.21.11.07.25.16.4.28.14.11.25.25.31.38.06.14.09.3.09.47,0,.48-.21.85-.64,1.13-.43.28-1.04.42-1.83.42-1.74,0-2.72-.75-2.95-2.24h-3.31c.11,1.47.7,2.64,1.79,3.49s2.6,1.28,4.53,1.28c1.7,0,3.08-.39,4.12-1.17,1.04-.79,1.57-1.84,1.57-3.18,0-.61-.1-1.15-.3-1.62-.2-.47-.44-.84-.71-1.11Z"/>
  <path class="cls-1" d="M256.07,44.18c-.86-.94-1.98-1.41-3.37-1.41-1.74,0-3.07.74-4,2.21h-.08v-1.84h0s-3.5,0-3.5,0v13.51h3.58v-7.66c0-.91.26-1.66.77-2.24.52-.58,1.17-.87,1.96-.87.74,0,1.31.23,1.72.69.41.46.62,1.06.62,1.79v8.29h3.58v-8.82c0-1.49-.43-2.71-1.29-3.65Z"/>
  <path class="cls-1" d="M235.88,42.77c-2.07,0-3.77.69-5.08,2.04-1.31,1.36-1.97,3.06-1.97,5.09s.66,3.74,1.97,5.09c1.31,1.36,3.01,2.04,5.08,2.04s3.77-.68,5.08-2.04c1.32-1.36,1.97-3.06,1.97-5.09s-.66-3.73-1.97-5.09c-1.31-1.36-3.01-2.04-5.08-2.04ZM238.4,53.11c-.6.8-1.45,1.19-2.52,1.19s-1.93-.4-2.53-1.19c-.6-.8-.9-1.85-.9-3.2s.3-2.43.9-3.23c.6-.79,1.45-1.19,2.53-1.19s1.91.4,2.52,1.21c.61.81.91,1.87.91,3.21s-.31,2.4-.91,3.2Z"/>
  <path class="cls-1" d="M161.8,44.76h-.08c-.86-1.33-2.13-2-3.82-2s-3.07.66-4.15,1.99c-1.08,1.33-1.62,2.97-1.62,5.15s.53,3.91,1.58,5.2c1.06,1.3,2.43,1.94,4.14,1.94h0c1.81,0,3.16-.71,4.03-2.15h.05v1.76h3.45v-18.83h-3.58v6.94ZM161.05,52.95c-.55.72-1.36,1.08-2.41,1.08h0c-.91,0-1.62-.36-2.12-1.08-.5-.72-.75-1.77-.75-3.06s.25-2.31.76-3.08c.51-.77,1.25-1.16,2.21-1.16,2.09,0,3.14,1.44,3.14,4.32,0,1.26-.28,2.26-.83,2.97Z"/>
  <path class="cls-1" d="M159.42,74.15c-.28.82-.55,1.8-.79,2.95h-.05l-.87-2.95-2-6.08h-3.77l3.63,9.61c.68,1.84,1.03,3.06,1.03,3.66,0,1.23-.67,1.84-2,1.84h-1.26v2.82h2.11c1.33,0,2.33-.29,2.99-.88.65-.59,1.24-1.65,1.77-3.2l4.72-13.85h-3.61l-1.9,6.08Z"/>
  <path class="cls-1" d="M174.24,67.71c-1.74,0-3.07.74-4,2.21h-.08v-1.84h0s-3.5,0-3.5,0v13.51h3.58v-7.66c0-.91.26-1.66.77-2.24.52-.58,1.17-.87,1.96-.87.74,0,1.31.23,1.72.69.41.46.62,1.06.62,1.79v8.29h3.58v-8.82c0-1.49-.43-2.71-1.29-3.65s-1.98-1.41-3.37-1.41Z"/>
  <path class="cls-1" d="M192.56,69.92c-1.16-1.48-2.8-2.21-4.92-2.21-1.95,0-3.55.69-4.79,2.04-1.25,1.36-1.87,2.98-1.87,5.07s.62,3.8,1.87,5.15c1.25,1.34,2.96,2.01,5.14,2.01,1.67,0,3.04-.42,4.11-1.26,1.07-.85,1.74-1.9,2-3.16h-3.53c-.42,1.11-1.3,1.66-2.61,1.66-1,0-1.79-.29-2.37-.88-.58-.59-.94-1.42-1.08-2.49h9.8c0-2.48-.58-4.45-1.74-5.92ZM184.56,73.37c.35-1.93,1.4-2.89,3.13-2.89h0c.8,0,1.47.26,2,.8.52.54.82,1.23.87,2.09h-6.01Z"/>
  <path class="cls-1" d="M177.23,44.76h-.08c-.86-1.33-2.13-2-3.82-2s-3.07.66-4.15,1.99c-1.08,1.33-1.62,2.97-1.62,5.15s.53,3.91,1.58,5.2c1.06,1.3,2.43,1.94,4.14,1.94h0c1.81,0,3.16-.71,4.03-2.15h.05v1.76h3.45v-18.83h-3.58v6.94ZM176.48,52.95c-.55.72-1.36,1.08-2.41,1.08h0c-.91,0-1.62-.36-2.12-1.08-.5-.72-.75-1.77-.75-3.06s.25-2.31.76-3.08c.51-.77,1.25-1.16,2.21-1.16,2.09,0,3.14,1.44,3.14,4.32,0,1.26-.28,2.26-.83,2.97Z"/>
  <path class="cls-1" d="M198.12,46.56c.41.46.62,1.06.62,1.79v8.29h3.58v-8.82c0-1.49-.43-2.71-1.29-3.65-.86-.94-1.98-1.41-3.37-1.41-1.74,0-3.07.74-4,2.21h-.08v-1.84h-3.51v13.5h3.58v-7.66c0-.91.26-1.66.77-2.24.52-.58,1.17-.87,1.96-.87.74,0,1.31.23,1.72.69Z"/>
  <path class="cls-1" d="M98.33,33.99h-24.27c-7.67,0-13.88,6.21-13.88,13.87,0,4.1,1.79,7.79,4.62,10.33h-8.28c-7.67,0-13.88,6.21-13.88,13.87s6.21,13.87,13.88,13.87h23.88c.13,0,.26.01.39.01,7.67,0,13.88-6.21,13.88-13.88,0-4.11-1.79-7.79-4.62-10.33h7.89c.13,0,.26.01.39.01,7.67,0,13.88-6.21,13.88-13.88s-6.21-13.88-13.88-13.88ZM64.57,47.86c0-5.23,4.25-9.47,9.48-9.47h14.14c-2.32,2.48-3.74,5.81-3.74,9.48s1.42,6.99,3.74,9.46h-14.13c-5.23,0-9.48-4.24-9.48-9.47ZM70.64,81.54h-14.13c-5.23,0-9.48-4.24-9.48-9.47s4.25-9.47,9.48-9.47h14.14c-2.32,2.48-3.74,5.81-3.74,9.48s1.42,6.99,3.74,9.46ZM90.25,72.06c0,5.22-4.25,9.47-9.48,9.47h-.18c-5.13-.11-9.28-4.31-9.28-9.46s4.24-9.47,9.47-9.48c5.22,0,9.47,4.25,9.47,9.47ZM98.31,57.33h-.18c-5.13-.11-9.28-4.31-9.28-9.46s4.24-9.47,9.47-9.48c5.22,0,9.47,4.25,9.47,9.47s-4.25,9.47-9.48,9.47Z"/>
</svg>